<?xml version="1.0" standalone="no"?>
<!DOCTYPE svg PUBLIC "-//W3C//DTD SVG 20010904//EN"
 "http://www.w3.org/TR/2001/REC-SVG-20010904/DTD/svg10.dtd">
<svg version="1.0" xmlns="http://www.w3.org/2000/svg"
 width="512.000000pt" height="512.000000pt" viewBox="0 0 512.000000 512.000000"
 preserveAspectRatio="xMidYMid meet">
<metadata>
Created by potrace 1.11, written by Peter Selinger 2001-2013
</metadata>
<g transform="translate(0.000000,512.000000) scale(0.100000,-0.100000)"
fill="#000000" stroke="none">
<path d="M1460 4755 l0 -365 -365 0 -365 0 0 -365 0 -365 -365 0 -365 0 0
-1100 0 -1100 365 0 365 0 0 -365 0 -365 365 0 365 0 0 -365 0 -365 1830 0
1830 0 0 1465 0 1465 -1095 0 -1095 0 0 -370 0 -370 365 0 365 0 0 -730 0
-730 -735 0 -735 0 0 365 0 365 -365 0 -365 0 0 1100 0 1100 365 0 365 0 0
365 0 365 1465 0 1465 0 0 365 0 365 -1830 0 -1830 0 0 -365z"/>
</g>
</svg>
